<svg height="512pt" viewBox="0 0 512 512" width="512pt" xmlns="http://www.w3.org/2000/svg"><path d="m106.070312 512 61.402344-61.402344c44.066406 8.679688 90.007813-5.148437 121.773438-36.914062 15.355468-15.355469 25.992187-33.980469 31.191406-54.144532 20.238281-5.179687 38.625-15.671874 53.667969-30.714843 33.03125-33.03125 45.335937-79.054688 36.914062-121.769531l100.980469-100.984376-106.070312-106.070312-100.953126 100.953125c-42.734374-8.382813-88.585937 3.730469-121.800781 36.941406-15.25 15.25-25.824219 33.941407-30.925781 54.515625-20.410156 5.027344-38.96875 15.378906-53.929688 30.34375-31.835937 31.832032-45.582031 77.796875-36.917968 121.769532l-61.402344 61.40625zm0-42.429688-21.210937-21.214843 77.101563-77.101563c18.125-18.125 41.972656-27.007812 67.160156-25.457031-1.03125 1.507813-2.207032 2.933594-3.515625 4.242187zm128.007813-163.785156v10.335938c-14.375-1.207032-28.621094.152344-42.136719 3.9375 3.699219-13.203125 5.089844-27.101563 4.027344-41.140625h10.285156c10.910156 0 21.632813-1.539063 31.933594-4.519531-2.714844 10.070312-4.109375 20.605468-4.109375 31.386718zm76.382813-40.605468c-10.40625 10.410156-16.378907 25.210937-16.378907 40.605468v24.867188c.011719 23.054687-9.242187 45.007812-26.046875 61.816406-19.5625 19.558594-45.988281 30.332031-73.101562 30.671875l51.886718-51.886719c10.96875-10.972656 17.261719-25.773437 17.261719-40.609375v-24.863281c-.007812-23.625 8.929688-45.578125 25.164063-61.816406 0-.101563 0-2.566406 0 0l30.011718-30.011719c7.78125 16.296875 5.347657 37.082031-8.796874 51.226563zm159.109374-159.109376-69.097656 69.097657c-4.359375-9.148438-9.808594-17.914063-16.34375-26.082031l64.226563-64.230469zm-63.640624-63.640624 21.210937 21.214843-64.222656 64.222657c-8.09375-6.484376-16.832031-11.964844-26.058594-16.371094zm-201.539063 116.679687c40.941406-40.941406 107.558594-40.945313 148.5 0 40.941406 40.941406 40.941406 107.558594 0 148.5-8.375 8.378906-18.132813 14.855469-28.804687 19.203125v-21.027344c0-7.496094 2.765624-14.566406 7.589843-19.390625 29.28125-29.277343 29.285157-76.789062 0-106.070312-29.277343-29.28125-76.789062-29.285157-106.070312 0-5.378907 5.378906-12.628907 8.589843-19.390625 8.589843h-21.425782c4.34375-11.0625 10.964844-21.167968 19.601563-29.804687zm-84.859375 84.855469c16.15625-16.152344 38.09375-25.046875 61.785156-25.046875h24.898438c24.90625 0 40.503906-17.316407 40.605468-17.378907 14.132813-14.132812 34.921876-16.582031 51.226563-8.796874l-30.011719 30.011718c-16.875 16.875-38.816406 26.164063-61.789062 26.164063-.011719 0-24.894532 0-24.894532 0-15.695312 0-30.117187 5.777343-40.605468 16.261719l-51.886719 51.886718c.335937-27.113281 11.113281-53.539062 30.671875-73.101562zm42.429688 42.429687c1.265624-1.265625 2.695312-2.378906 4.253906-3.34375 1.5 25.125-7.386719 48.90625-25.464844 66.988281l-77.105469 77.101563-21.214843-21.210937zm0 0"/></svg>