<?xml version="1.0" encoding="iso-8859-1"?>
<!-- Generator: Adobe Illustrator 19.0.0, SVG Export Plug-In . SVG Version: 6.00 Build 0)  -->
<svg version="1.1" id="Capa_1" xmlns="http://www.w3.org/2000/svg" xmlns:xlink="http://www.w3.org/1999/xlink" x="0px" y="0px"
	 viewBox="0 0 512 512" style="enable-background:new 0 0 512 512;" xml:space="preserve">
<g>
	<g>
		<g>
			<path d="M488.577,23.44c-31.273-31.181-81.879-31.181-113.152,0L208.001,190.864v90.512L121.377,368h198.624v-32H198.625l32-32
				h90.512l167.44-167.44C519.807,105.32,519.807,54.68,488.577,23.44z M240.001,204.112l64-64v45.264l-64,64V204.112z M307.889,272
				h-45.264l16-16h45.264L307.889,272z M355.889,224h-45.264l64-64h45.264L355.889,224z M465.953,113.936L451.889,128h-45.264
				l36.688-36.688l-22.624-22.624l-84.688,84.688v-45.264l62.048-62.048c18.742-18.751,49.137-18.758,67.888-0.016
				C484.688,64.79,484.695,95.185,465.953,113.936z"/>
			<path d="M416.001,448c0,17.673-14.327,32-32,32c-17.673,0-32-14.327-32-32v-48h-256V32h160V0h-192v400h-64v48
				c0,35.346,28.654,64,64,64h320c35.346,0,64-28.654,64-64V256h-32V448z M64.001,480c-17.673,0-32-14.327-32-32v-16h288v16
				c-0.017,11.239,2.948,22.281,8.592,32H64.001z"/>
			<rect x="352.001" y="336" width="32" height="32"/>
			<rect x="128.001" y="64" width="128" height="32"/>
			<rect x="128.001" y="128" width="80" height="32"/>
			<rect x="128.001" y="192" width="48" height="32"/>
			<rect x="128.001" y="256" width="48" height="32"/>
			<rect x="288.001" width="32" height="32"/>
		</g>
	</g>
</g>
<g>
</g>
<g>
</g>
<g>
</g>
<g>
</g>
<g>
</g>
<g>
</g>
<g>
</g>
<g>
</g>
<g>
</g>
<g>
</g>
<g>
</g>
<g>
</g>
<g>
</g>
<g>
</g>
<g>
</g>
</svg>
