<svg width="800px" height="800px" viewBox="0 0 48 48" version="1.1" xmlns="http://www.w3.org/2000/svg"><g><path d="M48,10h-8.765H39V8h-0.713h-2.362H35v2H20.037V8h-0.664h-3.311h-0.026v2h-9v1.297V14v30v4h3.213h0.787h0.031h32.849h4v-4 V24.148v-4V14H48V10z M43.917,44H11.068V24.148h32.849V44z M11.068,20.148v-4.742V14h4.969v2h0.026h3.311h0.664v-2H35v2h0.925 h1.794H39v-2h0.193h0.562h4.161v6.148H11.068z"/><rect height="4" width="5" x="16" y="28.148"/><rect height="4" width="4.992" x="25" y="28.148"/><rect height="4" width="5" x="33.992" y="28.148"/><rect height="4" width="5" x="16" y="36.148"/><rect height="4" width="4.992" x="25" y="36.148"/><rect height="4" width="5" x="33.992" y="36.148"/></g></svg>